<svg xmlns="http://www.w3.org/2000/svg" xmlns:xlink="http://www.w3.org/1999/xlink" width="16" height="16" viewBox="0 0 16 16" fill="none"><g opacity="1"  transform="translate(0 0)  rotate(0)"><mask id="bg-mask-0" fill="white"><use transform="translate(0 0)  rotate(0)" xlink:href="#path_0"></use></mask><g mask="url(#bg-mask-0)" ><path id="路径 1" fill-rule="evenodd" style="fill:#A6A6A6" opacity="1" d="M14.8739 6.08401C14.7839 5.84401 14.6639 5.65401 14.5239 5.49401C14.3739 5.34401 14.2139 5.22401 14.0239 5.13401C13.8339 5.05401 13.6439 4.99401 13.4439 4.97401L4.01393 4.96401L4.04393 7.95401L4.01393 7.95401L4.01393 8.46401C4.01393 8.60401 3.96393 8.72401 3.87392 8.81401C3.77393 8.91401 3.65393 8.96401 3.52393 8.96401C3.38393 8.96401 3.26393 8.91401 3.16393 8.81401C3.07393 8.72401 3.02393 8.60401 3.02393 8.46401L3.02393 7.98401L3.00393 7.98401L3.00393 6.94401C3.00393 6.64401 3.01393 6.31401 3.01393 5.96401C3.02393 5.60401 3.02393 5.27401 3.02393 4.96401C3.02393 4.65401 3.12393 4.41401 3.32393 4.24401C3.51393 4.08401 3.75393 4.00401 4.01393 4.00401L5.56392 4.00401C6.15392 4.00401 6.76392 3.99401 7.40392 3.99401C8.04392 3.98401 8.69392 3.98401 9.35392 3.97401C10.0039 3.97401 10.6339 3.96401 11.2139 3.96401C11.8039 3.95401 12.3339 3.95401 12.8239 3.94401C13.3139 3.93401 13.7039 3.93401 14.0039 3.93401L14.0039 3.76401C14.0039 3.51401 13.9339 3.28401 13.8039 3.07401C13.6839 2.85401 13.5139 2.67401 13.3239 2.51401C13.1239 2.35401 12.8939 2.22401 12.6439 2.12401C12.3939 2.03401 12.1539 1.98401 11.9039 1.98401L11.1639 1.98401L9.58392 1.98401C8.95392 1.98401 8.27392 1.98401 7.55392 1.99401C6.82392 1.99401 6.14392 2.00401 5.50392 2.00401L3.85392 2.00401L3.04393 2.00401C2.41393 2.00401 1.91393 2.18401 1.56393 2.55401C1.20393 2.92401 1.02393 3.43401 1.02393 4.08401L1.02393 10.944C1.02393 11.254 1.08393 11.534 1.21393 11.784C1.34393 12.034 1.51393 12.244 1.71393 12.424C1.91393 12.604 2.13393 12.734 2.37393 12.834C2.61393 12.924 2.84393 12.974 3.07393 12.974L13.0439 12.974C13.3539 12.974 13.6239 12.924 13.8739 12.824C14.1139 12.724 14.3239 12.594 14.5039 12.424C14.6839 12.254 14.8139 12.074 14.9039 11.874C14.9939 11.674 15.0439 11.464 15.0439 11.264C15.0439 10.884 15.0339 10.454 15.0339 9.98401C15.0239 9.51401 15.0239 9.07401 15.0239 8.64401C15.0239 8.22401 15.0239 7.85401 15.0139 7.53401C15.0139 7.21401 15.0039 7.01401 15.0039 6.92401C15.0039 6.59401 14.9639 6.31401 14.8739 6.08401Z"></path></g></g><defs><rect id="path_0" x="0" y="0" width="16" height="16" /></defs></svg>