<svg xmlns="http://www.w3.org/2000/svg" xmlns:xlink="http://www.w3.org/1999/xlink" width="16" height="16" viewBox="0 0 16 16" fill="none"><g opacity="1"  transform="translate(0 0)  rotate(0)"><mask id="bg-mask-0" fill="white"><use transform="translate(0 0)  rotate(0)" xlink:href="#path_0"></use></mask><g mask="url(#bg-mask-0)" ><path id="路径 1" fill-rule="evenodd" style="fill:#A6A6A6" opacity="1" d="M13,15.4h-8.8c-1.77,0 -3.2,-1.43 -3.2,-3.2v-8c0,-1.77 1.43,-3.2 3.2,-3.2h8.8c1.77,0 3.2,1.43 3.2,3.2v8c0,1.77 -1.43,3.2 -3.2,3.2zM12.52,1.8h-7.84c-1.59,0 -2.88,1.29 -2.88,2.88v7.04c0,1.59 1.29,2.88 2.88,2.88h7.84c1.59,0 2.88,-1.29 2.88,-2.88v-7.04c0,-1.59 -1.29,-2.88 -2.88,-2.88zM6.6,5.02l4.8,3.18l-4.8,3.18z"></path></g></g><defs><rect id="path_0" x="0" y="0" width="16" height="16" /></defs></svg>