<svg xmlns="http://www.w3.org/2000/svg" xmlns:xlink="http://www.w3.org/1999/xlink" width="16.00341796875" height="16" viewBox="0 0 16.00341796875 16" fill="none"><path id="Set up" fill-rule="evenodd" style="fill:#A6A6A6" opacity="1" d="M15.6405,9.5c0.37,0.29 0.47,0.79 0.24,1.2l-1.53,2.59c-0.16,0.3 -0.48,0.47 -0.83,0.47c-0.11,0 -0.23,-0.02 -0.34,-0.06l-1.61,-0.63c-0.29,0.19 -0.56,0.34 -0.85,0.47l-0.24,1.66c-0.07,0.46 -0.47,0.8 -0.95001,0.8h-3.06c-0.48,0 -0.9,-0.36 -0.96,-0.81l-0.24,-1.65c-0.28,-0.13 -0.57,-0.28 -0.84,-0.47l-1.61,0.63c-0.12,0.04 -0.22,0.06 -0.33,0.06c-0.34,0 -0.67,-0.19 -0.84,-0.49l-1.52,-2.56c-0.24,-0.42 -0.14,-0.92 0.23,-1.21l1.36,-1.03c-0.03,-0.17 -0.03,-0.33 -0.03,-0.47c0,-0.14 0.01,-0.3 0.03,-0.47l-1.36,-1.03c-0.37,-0.29 -0.47,-0.81 -0.23,-1.21l1.53,-2.58c0.16,-0.3 0.49,-0.47 0.83,-0.47c0.11,0 0.23,0.02 0.34,0.06l1.61,0.63c0.29,-0.19 0.56,-0.34 0.85,-0.47l0.22,-1.66c0.08,-0.46 0.48,-0.8 0.96,-0.8h3.06c0.48001,0 0.88001,0.34 0.95001,0.81l0.24,1.65c0.29,0.13 0.58,0.28 0.85,0.47l1.61,-0.63c0.11,-0.04 0.21,-0.06 0.33,-0.06c0.34,0 0.67,0.19 0.84,0.49l1.51,2.56c0.25,0.42 0.15,0.92 -0.22,1.21l-1.36,1.03c0.01,0.14 0.03,0.3 0.03,0.47c0,0.17 -0.02,0.33 -0.03,0.47zM8.00049,4.57c-1.89,0 -3.43,1.54 -3.43,3.43c0,1.89 1.54,3.43 3.43,3.43c1.88,0 3.42001,-1.54 3.42001,-3.43c0,-1.89 -1.54001,-3.43 -3.42001,-3.43z"></path></svg>